# xmcd
#
# Track frame offsets:
#  150
#  9376
#  21285
#  65731
#  87921
#  131515
#  159504
#  198727
#  220804
#  235067
#  251701
#  264247
#
# Disc length: 4488 seconds
#
# Revision: 0
# Processed by: cddbd v1.5.2PL0 Copyright (c) Steve Scherf et al.
# Submitted via: AltoMP3_Maker 3.0
#
DISCID=a311860c
DTITLE=Various Artist - Arias
DYEAR=1900
DGENRE=
TTITLE0=Mario del Monaco # Questa o quella
TTITLE1=Dame Johan Suzerland # Voiche Sapete
TTITLE2=Carlo Bergozi # Io vengo a domandar grazia mia regina
TTITLE3=Placido Domingo # Se quel guerrier io fossi
TTITLE4=Teresa Berganza # Una voce poco fa
TTITLE5=Pilar Lorengar # E Susana non vien
TTITLE6=Teresa Berganza # Ah qual colpo inaspettato
TTITLE7=Dame Joan Suzerland # Era desso il figlio mio
TTITLE8=Renata Tebaldi # Quadri Picche
TTITLE9=Renata Tebaldi # Voi lo sapete o mama
TTITLE10=Renee Fleming # Soave sia il vento
TTITLE11=O giusto cielo
EXTD=
EXTT0=
EXTT1=
EXTT2=
EXTT3=
EXTT4=
EXTT5=
EXTT6=
EXTT7=
EXTT8=
EXTT9=
EXTT10=
EXTT11=
PLAYORDER=
